<svg xmlns="http://www.w3.org/2000/svg" width="64" height="64" viewBox="0 0 64 64" fill="none">
  <path d="M32 52C32 52 14 40 14 26C14 18.268 20.268 12 28 12C30.5 12 32.8 12.8 34.6 14.2C36.4 12.8 38.7 12 41.2 12C49 12 55 18.268 55 26C55 40 32 52 32 52Z" fill="#EF4444"/>
  <path d="M16 32H48" stroke="#fff" stroke-width="2.5" stroke-linecap="round"/>
  <path d="M24 32L28 28L34 36L40 30L44 34" stroke="#fff" stroke-width="2" stroke-linecap="round" stroke-linejoin="round" fill="none"/>
  <circle cx="48" cy="16" r="8" fill="#fff"/>
  <rect x="45" y="13" width="6" height="2" rx="1" fill="#EF4444"/>
  <rect x="47" y="11" width="2" height="6" rx="1" fill="#EF4444"/>
</svg>
