<svg xmlns="http://www.w3.org/2000/svg" width="64" height="64" viewBox="0 0 64 64" fill="none">
  <rect x="12" y="20" width="36" height="24" rx="3" fill="#2454FF"/>
  <rect x="14" y="22" width="32" height="18" rx="2" fill="#EEF2FF"/>
  <rect x="22" y="44" width="16" height="3" rx="1" fill="#8E8E8E"/>
  <rect x="18" y="47" width="24" height="2" rx="1" fill="#A5A5A9"/>
  <rect x="38" y="8" width="14" height="10" rx="2" fill="#22C55E"/>
  <rect x="42" y="11" width="6" height="2" rx="1" fill="#fff"/>
  <rect x="42" y="14" width="4" height="1.5" rx="0.75" fill="#fff" opacity="0.8"/>
  <rect x="8" y="12" width="12" height="10" rx="2" fill="#F97316"/>
  <circle cx="14" cy="17" r="2.5" fill="#fff"/>
  <rect x="44" y="28" width="12" height="10" rx="2" fill="#2454FF" opacity="0.9"/>
  <rect x="46" y="31" width="8" height="1.5" rx="0.75" fill="#fff"/>
  <rect x="46" y="34" width="5" height="1.5" rx="0.75" fill="#fff" opacity="0.8"/>
</svg>
