<svg xmlns="http://www.w3.org/2000/svg" width="64" height="64" viewBox="0 0 64 64" fill="none">
  <circle cx="32" cy="36" r="20" fill="#2454FF" opacity="0.15"/>
  <ellipse cx="32" cy="36" rx="20" ry="10" fill="#2454FF" opacity="0.25"/>
  <path d="M12 28C12 28 20 20 32 20C44 20 52 28 52 28" stroke="#2454FF" stroke-width="2" fill="none"/>
  <path d="M14 30C14 30 21 23 32 23C43 23 50 30 50 30" stroke="#2454FF" stroke-width="1.5" fill="none" opacity="0.6"/>
  <circle cx="20" cy="30" r="3" fill="#EF4444"/>
  <circle cx="32" cy="26" r="3" fill="#EF4444"/>
  <circle cx="44" cy="30" r="3" fill="#EF4444"/>
  <rect x="22" y="8" width="20" height="16" rx="3" fill="#EC4899"/>
  <path d="M22 12H42" stroke="#fff" stroke-width="2"/>
  <rect x="26" y="14" width="12" height="6" rx="1" fill="#fff" opacity="0.9"/>
  <rect x="30" y="6" width="4" height="4" fill="#EC4899"/>
</svg>
